<mxfile host="Electron" modified="2023-10-01T06:22:53.494Z" agent="Mozilla/5.0 (Windows NT 10.0; Win64; x64) AppleWebKit/537.36 (KHTML, like Gecko) draw.io/22.0.0 Chrome/114.0.5735.289 Electron/25.8.3 Safari/537.36" etag="Zpvordjiq3YdzJFBqDAy" version="22.0.0" type="device">
  <diagram id="C5RBs43oDa-KdzZeNtuy" name="Page-1">
    <mxGraphModel dx="3296" dy="1451" grid="1" gridSize="10" guides="1" tooltips="1" connect="1" arrows="1" fold="1" page="1" pageScale="1" pageWidth="827" pageHeight="1169" math="0" shadow="0">
      <root>
        <mxCell id="WIyWlLk6GJQsqaUBKTNV-0" />
        <mxCell id="WIyWlLk6GJQsqaUBKTNV-1" parent="WIyWlLk6GJQsqaUBKTNV-0" />
        <mxCell id="TBiRLypEf1GZ8GdnLdAw-0" value="co.edu.unbosque.model" style="shape=folder;fontStyle=1;spacingTop=10;tabWidth=200;tabHeight=20;tabPosition=left;html=1;whiteSpace=wrap;align=left;labelPosition=center;verticalLabelPosition=top;verticalAlign=bottom;spacingBottom=-18;" vertex="1" parent="WIyWlLk6GJQsqaUBKTNV-1">
          <mxGeometry x="-810" y="10" width="1830" height="1170" as="geometry" />
        </mxCell>
        <mxCell id="TBiRLypEf1GZ8GdnLdAw-1" value="GeneralServiceDTO" style="swimlane;fontStyle=1;align=center;verticalAlign=top;childLayout=stackLayout;horizontal=1;startSize=26;horizontalStack=0;resizeParent=1;resizeParentMax=0;resizeLast=0;collapsible=1;marginBottom=0;whiteSpace=wrap;html=1;" vertex="1" parent="WIyWlLk6GJQsqaUBKTNV-1">
          <mxGeometry x="-340" y="40" width="320" height="300" as="geometry" />
        </mxCell>
        <mxCell id="TBiRLypEf1GZ8GdnLdAw-2" value="- salary: double&lt;br&gt;-sessionsCleaned: int" style="text;strokeColor=none;fillColor=none;align=left;verticalAlign=top;spacingLeft=4;spacingRight=4;overflow=hidden;rotatable=0;points=[[0,0.5],[1,0.5]];portConstraint=eastwest;whiteSpace=wrap;html=1;" vertex="1" parent="TBiRLypEf1GZ8GdnLdAw-1">
          <mxGeometry y="26" width="320" height="44" as="geometry" />
        </mxCell>
        <mxCell id="TBiRLypEf1GZ8GdnLdAw-3" value="" style="line;strokeWidth=1;fillColor=none;align=left;verticalAlign=middle;spacingTop=-1;spacingLeft=3;spacingRight=3;rotatable=0;labelPosition=right;points=[];portConstraint=eastwest;strokeColor=inherit;" vertex="1" parent="TBiRLypEf1GZ8GdnLdAw-1">
          <mxGeometry y="70" width="320" height="8" as="geometry" />
        </mxCell>
        <mxCell id="TBiRLypEf1GZ8GdnLdAw-4" value="&lt;div style=&quot;text-align: justify;&quot;&gt;&lt;span style=&quot;background-color: initial;&quot;&gt;+ GeneralServiceDTO()&lt;/span&gt;&lt;/div&gt;&lt;div style=&quot;text-align: justify;&quot;&gt;&lt;span style=&quot;background-color: initial;&quot;&gt;+ GeneralServiceDTO (userName: String, password: String, name: String, document: Long, dateOfBirth:Date, cityOfBirth: String, salary: double, sessionsCleaned: int)&lt;/span&gt;&lt;/div&gt;&lt;div style=&quot;text-align: justify;&quot;&gt;&lt;span style=&quot;background-color: initial;&quot;&gt;+ GeneralServiceDTO(salary: double, sessionsCleaned: int)&lt;/span&gt;&lt;/div&gt;&lt;div style=&quot;text-align: justify;&quot;&gt;&lt;span style=&quot;background-color: initial;&quot;&gt;+ GeneralServiceDTO(userName: String, password: String, name: String, document: Long, dateOfBirth:Date, cityOfBirth: String)&lt;/span&gt;&lt;/div&gt;&lt;div style=&quot;text-align: justify;&quot;&gt;&lt;span style=&quot;background-color: initial;&quot;&gt;+ getSalary(): double&lt;/span&gt;&lt;/div&gt;&lt;div style=&quot;text-align: justify;&quot;&gt;&lt;span style=&quot;background-color: initial;&quot;&gt;+ setSalary(salary: double): void&lt;/span&gt;&lt;/div&gt;&lt;div style=&quot;text-align: justify;&quot;&gt;&lt;span style=&quot;background-color: initial;&quot;&gt;+ getSessionsCleaned(): int&lt;/span&gt;&lt;/div&gt;&lt;div style=&quot;text-align: justify;&quot;&gt;&lt;span style=&quot;background-color: initial;&quot;&gt;+setSessionsCleaned(sessionsCleaned: int): void&lt;/span&gt;&lt;/div&gt;" style="text;strokeColor=none;fillColor=none;align=left;verticalAlign=top;spacingLeft=4;spacingRight=4;overflow=hidden;rotatable=0;points=[[0,0.5],[1,0.5]];portConstraint=eastwest;whiteSpace=wrap;html=1;" vertex="1" parent="TBiRLypEf1GZ8GdnLdAw-1">
          <mxGeometry y="78" width="320" height="222" as="geometry" />
        </mxCell>
        <mxCell id="TBiRLypEf1GZ8GdnLdAw-13" value="PersonDTO" style="swimlane;fontStyle=1;align=center;verticalAlign=top;childLayout=stackLayout;horizontal=1;startSize=26;horizontalStack=0;resizeParent=1;resizeParentMax=0;resizeLast=0;collapsible=1;marginBottom=0;whiteSpace=wrap;html=1;" vertex="1" parent="WIyWlLk6GJQsqaUBKTNV-1">
          <mxGeometry x="-780" y="370" width="320" height="390" as="geometry" />
        </mxCell>
        <mxCell id="TBiRLypEf1GZ8GdnLdAw-14" value="- userName: String&lt;br&gt;- password: String&lt;br&gt;- name: String&lt;br&gt;- document: long&lt;br&gt;- dateOfBirth: Date&lt;br&gt;- cityOfBirth: String&amp;nbsp;" style="text;strokeColor=none;fillColor=none;align=left;verticalAlign=top;spacingLeft=4;spacingRight=4;overflow=hidden;rotatable=0;points=[[0,0.5],[1,0.5]];portConstraint=eastwest;whiteSpace=wrap;html=1;" vertex="1" parent="TBiRLypEf1GZ8GdnLdAw-13">
          <mxGeometry y="26" width="320" height="104" as="geometry" />
        </mxCell>
        <mxCell id="TBiRLypEf1GZ8GdnLdAw-15" value="" style="line;strokeWidth=1;fillColor=none;align=left;verticalAlign=middle;spacingTop=-1;spacingLeft=3;spacingRight=3;rotatable=0;labelPosition=right;points=[];portConstraint=eastwest;strokeColor=inherit;" vertex="1" parent="TBiRLypEf1GZ8GdnLdAw-13">
          <mxGeometry y="130" width="320" height="8" as="geometry" />
        </mxCell>
        <mxCell id="TBiRLypEf1GZ8GdnLdAw-16" value="+ PersonDTO()&lt;br&gt;+ PersonDTO(userName: String, password: String, name: String, document: Long, dateOfBirth:Date, cityOfBirth: String)&lt;br&gt;+ getUserName(): String&lt;br&gt;+ setUserName(userName: String): String&lt;br&gt;+ getPassword(): String&lt;br&gt;+ setPassword(password: String): void&lt;br&gt;+ getName(): String&lt;br&gt;+ setName(name: String): void&lt;br&gt;+ getDocument(): long&lt;br&gt;+ setDocument(document: long): void&lt;br&gt;+ getDateOfBirth(): Date&lt;br&gt;+ setDateOfBirth(dateOfBirth: Date): void&lt;br&gt;+ getCityOfBirth(): String&lt;br&gt;+ setCityOfBirth(cityOfBirth: String): void" style="text;strokeColor=none;fillColor=none;align=left;verticalAlign=top;spacingLeft=4;spacingRight=4;overflow=hidden;rotatable=0;points=[[0,0.5],[1,0.5]];portConstraint=eastwest;whiteSpace=wrap;html=1;" vertex="1" parent="TBiRLypEf1GZ8GdnLdAw-13">
          <mxGeometry y="138" width="320" height="252" as="geometry" />
        </mxCell>
        <mxCell id="TBiRLypEf1GZ8GdnLdAw-19" value="ParticipantDTO" style="swimlane;fontStyle=1;align=center;verticalAlign=top;childLayout=stackLayout;horizontal=1;startSize=26;horizontalStack=0;resizeParent=1;resizeParentMax=0;resizeLast=0;collapsible=1;marginBottom=0;whiteSpace=wrap;html=1;" vertex="1" parent="WIyWlLk6GJQsqaUBKTNV-1">
          <mxGeometry x="-340" y="420" width="320" height="290" as="geometry" />
        </mxCell>
        <mxCell id="TBiRLypEf1GZ8GdnLdAw-20" value="- participatedSessions: int&lt;br&gt;- nickName: String" style="text;strokeColor=none;fillColor=none;align=left;verticalAlign=top;spacingLeft=4;spacingRight=4;overflow=hidden;rotatable=0;points=[[0,0.5],[1,0.5]];portConstraint=eastwest;whiteSpace=wrap;html=1;" vertex="1" parent="TBiRLypEf1GZ8GdnLdAw-19">
          <mxGeometry y="26" width="320" height="44" as="geometry" />
        </mxCell>
        <mxCell id="TBiRLypEf1GZ8GdnLdAw-21" value="" style="line;strokeWidth=1;fillColor=none;align=left;verticalAlign=middle;spacingTop=-1;spacingLeft=3;spacingRight=3;rotatable=0;labelPosition=right;points=[];portConstraint=eastwest;strokeColor=inherit;" vertex="1" parent="TBiRLypEf1GZ8GdnLdAw-19">
          <mxGeometry y="70" width="320" height="8" as="geometry" />
        </mxCell>
        <mxCell id="TBiRLypEf1GZ8GdnLdAw-22" value="+ ParticipantDTO()&lt;br&gt;+ ParticipantDTO(userName: String, password: String, name: String, document: Long, dateOfBirth:Date, cityOfBirth: String, participatedSessions: int, nickName: String)&lt;br&gt;+ ParticipantDTO(String, participatedSessions: int, nickName: String)&lt;br&gt;+ ParticipantDTO(userName: String, password: String, name: String, document: Long, dateOfBirth:Date, cityOfBirth: String)&lt;br&gt;+ getPartipatedSessions(): int&lt;br&gt;+ setParticipatedSessions(participatedSessions: int): void&lt;br&gt;+ getNickName(): String&lt;br&gt;+ setNickName(nickName: String): void" style="text;strokeColor=none;fillColor=none;align=left;verticalAlign=top;spacingLeft=4;spacingRight=4;overflow=hidden;rotatable=0;points=[[0,0.5],[1,0.5]];portConstraint=eastwest;whiteSpace=wrap;html=1;" vertex="1" parent="TBiRLypEf1GZ8GdnLdAw-19">
          <mxGeometry y="78" width="320" height="212" as="geometry" />
        </mxCell>
        <mxCell id="TBiRLypEf1GZ8GdnLdAw-23" value="PsychologistDTO" style="swimlane;fontStyle=1;align=center;verticalAlign=top;childLayout=stackLayout;horizontal=1;startSize=26;horizontalStack=0;resizeParent=1;resizeParentMax=0;resizeLast=0;collapsible=1;marginBottom=0;whiteSpace=wrap;html=1;" vertex="1" parent="WIyWlLk6GJQsqaUBKTNV-1">
          <mxGeometry x="-340" y="780" width="320" height="390" as="geometry" />
        </mxCell>
        <mxCell id="TBiRLypEf1GZ8GdnLdAw-24" value="-&amp;nbsp; yearOfGraduation: Year&lt;br&gt;- daysInService: int&lt;br&gt;- suportedSessions: int&lt;br&gt;- salary:double" style="text;strokeColor=none;fillColor=none;align=left;verticalAlign=top;spacingLeft=4;spacingRight=4;overflow=hidden;rotatable=0;points=[[0,0.5],[1,0.5]];portConstraint=eastwest;whiteSpace=wrap;html=1;" vertex="1" parent="TBiRLypEf1GZ8GdnLdAw-23">
          <mxGeometry y="26" width="320" height="74" as="geometry" />
        </mxCell>
        <mxCell id="TBiRLypEf1GZ8GdnLdAw-25" value="" style="line;strokeWidth=1;fillColor=none;align=left;verticalAlign=middle;spacingTop=-1;spacingLeft=3;spacingRight=3;rotatable=0;labelPosition=right;points=[];portConstraint=eastwest;strokeColor=inherit;" vertex="1" parent="TBiRLypEf1GZ8GdnLdAw-23">
          <mxGeometry y="100" width="320" height="8" as="geometry" />
        </mxCell>
        <mxCell id="TBiRLypEf1GZ8GdnLdAw-26" value="+&amp;nbsp;PsychologistDTO()&lt;br&gt;+&amp;nbsp;PsychologistDTO(yearOfGraduation: Year, daysInService: int, suportedSessions: int, salary: double)&lt;br&gt;+&amp;nbsp;PsychologistDTO(userName: String, password: String, name: String, document: Long, dateOfBirth:Date, cityOfBirth: String)&lt;br&gt;+&amp;nbsp;PsychologistDTO(userName: String, password: String, name: String, document: Long, dateOfBirth:Date, cityOfBirth: String,yearOfGraduation: Year, daysInService: int, suportedSessions: int, salary: double)&lt;br&gt;+ getYearsOfGraduation(): Year&lt;br&gt;+ setYearsOfGraduation(yearsOfGraduation: Year): void&lt;br&gt;+ getDaysInService(): int&lt;br&gt;+ setDaysInService(daysInService: int): void&lt;br&gt;+ getSupportedSessions(): int&lt;br&gt;+ setSupportedSessions(supportedSessions: int): void&lt;br&gt;+ getSalary(): double&lt;br&gt;+ setSalary(salary: double): void&lt;br&gt;&lt;br&gt;&amp;nbsp;" style="text;strokeColor=none;fillColor=none;align=left;verticalAlign=top;spacingLeft=4;spacingRight=4;overflow=hidden;rotatable=0;points=[[0,0.5],[1,0.5]];portConstraint=eastwest;whiteSpace=wrap;html=1;" vertex="1" parent="TBiRLypEf1GZ8GdnLdAw-23">
          <mxGeometry y="108" width="320" height="282" as="geometry" />
        </mxCell>
        <mxCell id="TBiRLypEf1GZ8GdnLdAw-27" value="Extends" style="endArrow=block;endSize=16;endFill=0;html=1;rounded=0;entryX=0.75;entryY=0;entryDx=0;entryDy=0;exitX=0;exitY=0.5;exitDx=0;exitDy=0;" edge="1" parent="WIyWlLk6GJQsqaUBKTNV-1" source="TBiRLypEf1GZ8GdnLdAw-4" target="TBiRLypEf1GZ8GdnLdAw-13">
          <mxGeometry x="-0.2353" width="160" relative="1" as="geometry">
            <mxPoint x="-100" y="490" as="sourcePoint" />
            <mxPoint x="60" y="490" as="targetPoint" />
            <Array as="points">
              <mxPoint x="-540" y="230" />
            </Array>
            <mxPoint x="-1" as="offset" />
          </mxGeometry>
        </mxCell>
        <mxCell id="TBiRLypEf1GZ8GdnLdAw-28" value="Extends" style="endArrow=block;endSize=16;endFill=0;html=1;rounded=0;" edge="1" parent="WIyWlLk6GJQsqaUBKTNV-1" source="TBiRLypEf1GZ8GdnLdAw-19" target="TBiRLypEf1GZ8GdnLdAw-13">
          <mxGeometry width="160" relative="1" as="geometry">
            <mxPoint x="-260" y="600" as="sourcePoint" />
            <mxPoint x="-100" y="600" as="targetPoint" />
          </mxGeometry>
        </mxCell>
        <mxCell id="TBiRLypEf1GZ8GdnLdAw-30" value="Extends" style="endArrow=block;endSize=16;endFill=0;html=1;rounded=0;entryX=0.723;entryY=1.002;entryDx=0;entryDy=0;entryPerimeter=0;exitX=0.005;exitY=1.029;exitDx=0;exitDy=0;exitPerimeter=0;" edge="1" parent="WIyWlLk6GJQsqaUBKTNV-1" source="TBiRLypEf1GZ8GdnLdAw-24" target="TBiRLypEf1GZ8GdnLdAw-16">
          <mxGeometry x="-0.2051" y="-1" width="160" relative="1" as="geometry">
            <mxPoint x="-400" y="820" as="sourcePoint" />
            <mxPoint x="-240" y="820" as="targetPoint" />
            <Array as="points">
              <mxPoint x="-550" y="880" />
            </Array>
            <mxPoint as="offset" />
          </mxGeometry>
        </mxCell>
        <mxCell id="TBiRLypEf1GZ8GdnLdAw-31" value="persistence" style="shape=folder;fontStyle=1;spacingTop=10;tabWidth=90;tabHeight=20;tabPosition=left;html=1;whiteSpace=wrap;align=left;labelPosition=center;verticalLabelPosition=top;verticalAlign=bottom;spacingBottom=-18;" vertex="1" parent="WIyWlLk6GJQsqaUBKTNV-1">
          <mxGeometry x="160" y="230" width="730" height="800" as="geometry" />
        </mxCell>
        <mxCell id="TBiRLypEf1GZ8GdnLdAw-32" value="&lt;p style=&quot;margin:0px;margin-top:4px;text-align:center;&quot;&gt;&lt;i&gt;&amp;lt;&amp;lt;Interface&amp;gt;&amp;gt;&lt;/i&gt;&lt;br&gt;&lt;b&gt;CRUDoperation&lt;/b&gt;&lt;/p&gt;&lt;hr size=&quot;1&quot;&gt;&lt;p style=&quot;margin:0px;margin-left:4px;&quot;&gt;+ create(info: T): void&lt;br&gt;+ update( index: int, info: T): void&lt;/p&gt;&lt;p style=&quot;margin:0px;margin-left:4px;&quot;&gt;+ delete(int index): T&lt;/p&gt;" style="verticalAlign=top;align=left;overflow=fill;fontSize=12;fontFamily=Helvetica;html=1;whiteSpace=wrap;" vertex="1" parent="WIyWlLk6GJQsqaUBKTNV-1">
          <mxGeometry x="670" y="570" width="190" height="100" as="geometry" />
        </mxCell>
        <mxCell id="TBiRLypEf1GZ8GdnLdAw-33" value="PersonDAO" style="swimlane;fontStyle=1;align=center;verticalAlign=top;childLayout=stackLayout;horizontal=1;startSize=26;horizontalStack=0;resizeParent=1;resizeParentMax=0;resizeLast=0;collapsible=1;marginBottom=0;whiteSpace=wrap;html=1;" vertex="1" parent="WIyWlLk6GJQsqaUBKTNV-1">
          <mxGeometry x="194" y="340" width="420" height="130" as="geometry" />
        </mxCell>
        <mxCell id="TBiRLypEf1GZ8GdnLdAw-34" value="- listPeople: Arraylist&amp;lt;PersonDTO&amp;gt;" style="text;strokeColor=none;fillColor=none;align=left;verticalAlign=top;spacingLeft=4;spacingRight=4;overflow=hidden;rotatable=0;points=[[0,0.5],[1,0.5]];portConstraint=eastwest;whiteSpace=wrap;html=1;" vertex="1" parent="TBiRLypEf1GZ8GdnLdAw-33">
          <mxGeometry y="26" width="420" height="34" as="geometry" />
        </mxCell>
        <mxCell id="TBiRLypEf1GZ8GdnLdAw-35" value="" style="line;strokeWidth=1;fillColor=none;align=left;verticalAlign=middle;spacingTop=-1;spacingLeft=3;spacingRight=3;rotatable=0;labelPosition=right;points=[];portConstraint=eastwest;strokeColor=inherit;" vertex="1" parent="TBiRLypEf1GZ8GdnLdAw-33">
          <mxGeometry y="60" width="420" height="8" as="geometry" />
        </mxCell>
        <mxCell id="TBiRLypEf1GZ8GdnLdAw-36" value="+ personDAO()&lt;br&gt;+ getListPeople(): Arraylist&amp;lt;PersonDTO&amp;gt;&amp;nbsp;&lt;br&gt;+ setListPeople(listPeople:Arraylist&amp;lt;PersonDTO&amp;gt;): void" style="text;strokeColor=none;fillColor=none;align=left;verticalAlign=top;spacingLeft=4;spacingRight=4;overflow=hidden;rotatable=0;points=[[0,0.5],[1,0.5]];portConstraint=eastwest;whiteSpace=wrap;html=1;" vertex="1" parent="TBiRLypEf1GZ8GdnLdAw-33">
          <mxGeometry y="68" width="420" height="62" as="geometry" />
        </mxCell>
        <mxCell id="TBiRLypEf1GZ8GdnLdAw-37" value="ParticipantDAO" style="swimlane;fontStyle=1;align=center;verticalAlign=top;childLayout=stackLayout;horizontal=1;startSize=26;horizontalStack=0;resizeParent=1;resizeParentMax=0;resizeLast=0;collapsible=1;marginBottom=0;whiteSpace=wrap;html=1;" vertex="1" parent="WIyWlLk6GJQsqaUBKTNV-1">
          <mxGeometry x="194" y="490" width="420" height="130" as="geometry" />
        </mxCell>
        <mxCell id="TBiRLypEf1GZ8GdnLdAw-38" value="-&amp;nbsp;listParticipants&lt;span style=&quot;background-color: initial;&quot;&gt;: Arraylist&amp;lt;ParticipantDAO&amp;gt;&lt;/span&gt;&lt;div style=&quot;background-color:#2f2f2f;padding:0px 0px 0px 2px;&quot;&gt;&lt;div style=&quot;color: rgb(170, 170, 170); font-family: &amp;quot;Courier New&amp;quot;; font-size: 8pt;&quot;&gt;&lt;p style=&quot;background-color:#373737;margin:0;&quot;&gt;&lt;span style=&quot;color:#e6e6fa;&quot;&gt;&lt;/span&gt;&lt;/p&gt;&lt;/div&gt;&lt;/div&gt;" style="text;strokeColor=none;fillColor=none;align=left;verticalAlign=top;spacingLeft=4;spacingRight=4;overflow=hidden;rotatable=0;points=[[0,0.5],[1,0.5]];portConstraint=eastwest;whiteSpace=wrap;html=1;" vertex="1" parent="TBiRLypEf1GZ8GdnLdAw-37">
          <mxGeometry y="26" width="420" height="34" as="geometry" />
        </mxCell>
        <mxCell id="TBiRLypEf1GZ8GdnLdAw-39" value="" style="line;strokeWidth=1;fillColor=none;align=left;verticalAlign=middle;spacingTop=-1;spacingLeft=3;spacingRight=3;rotatable=0;labelPosition=right;points=[];portConstraint=eastwest;strokeColor=inherit;" vertex="1" parent="TBiRLypEf1GZ8GdnLdAw-37">
          <mxGeometry y="60" width="420" height="8" as="geometry" />
        </mxCell>
        <mxCell id="TBiRLypEf1GZ8GdnLdAw-40" value="+&amp;nbsp;ParticipantDAO()&lt;br&gt;+ getListParticipants(): Arraylist&amp;lt;ParticipantDAO&amp;gt;&amp;nbsp;&lt;br&gt;+ setListParticipants(listPeople:Arraylist&amp;lt;ParticipantDAO&amp;gt;): void" style="text;strokeColor=none;fillColor=none;align=left;verticalAlign=top;spacingLeft=4;spacingRight=4;overflow=hidden;rotatable=0;points=[[0,0.5],[1,0.5]];portConstraint=eastwest;whiteSpace=wrap;html=1;" vertex="1" parent="TBiRLypEf1GZ8GdnLdAw-37">
          <mxGeometry y="68" width="420" height="62" as="geometry" />
        </mxCell>
        <mxCell id="TBiRLypEf1GZ8GdnLdAw-41" value="GeneralServiceDAO" style="swimlane;fontStyle=1;align=center;verticalAlign=top;childLayout=stackLayout;horizontal=1;startSize=26;horizontalStack=0;resizeParent=1;resizeParentMax=0;resizeLast=0;collapsible=1;marginBottom=0;whiteSpace=wrap;html=1;" vertex="1" parent="WIyWlLk6GJQsqaUBKTNV-1">
          <mxGeometry x="194" y="640" width="420" height="130" as="geometry" />
        </mxCell>
        <mxCell id="TBiRLypEf1GZ8GdnLdAw-42" value="- listGeneralService: Arraylist&amp;lt;GeneralServiceDAO&amp;gt;" style="text;strokeColor=none;fillColor=none;align=left;verticalAlign=top;spacingLeft=4;spacingRight=4;overflow=hidden;rotatable=0;points=[[0,0.5],[1,0.5]];portConstraint=eastwest;whiteSpace=wrap;html=1;" vertex="1" parent="TBiRLypEf1GZ8GdnLdAw-41">
          <mxGeometry y="26" width="420" height="34" as="geometry" />
        </mxCell>
        <mxCell id="TBiRLypEf1GZ8GdnLdAw-43" value="" style="line;strokeWidth=1;fillColor=none;align=left;verticalAlign=middle;spacingTop=-1;spacingLeft=3;spacingRight=3;rotatable=0;labelPosition=right;points=[];portConstraint=eastwest;strokeColor=inherit;" vertex="1" parent="TBiRLypEf1GZ8GdnLdAw-41">
          <mxGeometry y="60" width="420" height="8" as="geometry" />
        </mxCell>
        <mxCell id="TBiRLypEf1GZ8GdnLdAw-44" value="+ GeneralServiceDAO()&lt;br&gt;+ getListGeneralService&lt;span style=&quot;background-color: initial;&quot;&gt;(): Arraylist&amp;lt;GeneralServiceDAO&amp;gt;&amp;nbsp;&lt;/span&gt;&lt;div style=&quot;background-color:#2f2f2f;padding:0px 0px 0px 2px;&quot;&gt;&lt;div style=&quot;color: rgb(170, 170, 170); font-family: &amp;quot;Courier New&amp;quot;; font-size: 8pt;&quot;&gt;&lt;p style=&quot;background-color:#373737;margin:0;&quot;&gt;&lt;span style=&quot;color:#d9e8f7;&quot;&gt;&lt;/span&gt;&lt;/p&gt;&lt;/div&gt;&lt;/div&gt;+&amp;nbsp;setListGeneralService(listGeneralService&lt;span style=&quot;background-color: initial;&quot;&gt;:Arraylist&amp;lt;GeneralServiceDAO&amp;gt;): void&lt;/span&gt;&lt;br&gt;&lt;div style=&quot;background-color:#2f2f2f;padding:0px 0px 0px 2px;&quot;&gt;&lt;div style=&quot;color: rgb(170, 170, 170); font-family: &amp;quot;Courier New&amp;quot;; font-size: 8pt;&quot;&gt;&lt;p style=&quot;background-color:#373737;margin:0;&quot;&gt;&lt;span style=&quot;color:#d9e8f7;&quot;&gt;&lt;/span&gt;&lt;/p&gt;&lt;/div&gt;&lt;/div&gt;&lt;div style=&quot;background-color:#2f2f2f;padding:0px 0px 0px 2px;&quot;&gt;&lt;div style=&quot;color: rgb(170, 170, 170); font-family: &amp;quot;Courier New&amp;quot;; font-size: 8pt;&quot;&gt;&lt;p style=&quot;background-color:#373737;margin:0;&quot;&gt;&lt;span style=&quot;color:#d9e8f7;&quot;&gt;&lt;/span&gt;&lt;/p&gt;&lt;/div&gt;&lt;/div&gt;" style="text;strokeColor=none;fillColor=none;align=left;verticalAlign=top;spacingLeft=4;spacingRight=4;overflow=hidden;rotatable=0;points=[[0,0.5],[1,0.5]];portConstraint=eastwest;whiteSpace=wrap;html=1;" vertex="1" parent="TBiRLypEf1GZ8GdnLdAw-41">
          <mxGeometry y="68" width="420" height="62" as="geometry" />
        </mxCell>
        <mxCell id="TBiRLypEf1GZ8GdnLdAw-49" value="PsychologistDAO" style="swimlane;fontStyle=1;align=center;verticalAlign=top;childLayout=stackLayout;horizontal=1;startSize=26;horizontalStack=0;resizeParent=1;resizeParentMax=0;resizeLast=0;collapsible=1;marginBottom=0;whiteSpace=wrap;html=1;" vertex="1" parent="WIyWlLk6GJQsqaUBKTNV-1">
          <mxGeometry x="194" y="790" width="420" height="130" as="geometry" />
        </mxCell>
        <mxCell id="TBiRLypEf1GZ8GdnLdAw-50" value="- listPsychologists: Arraylist&amp;lt;PsychologistDAO&amp;gt;" style="text;strokeColor=none;fillColor=none;align=left;verticalAlign=top;spacingLeft=4;spacingRight=4;overflow=hidden;rotatable=0;points=[[0,0.5],[1,0.5]];portConstraint=eastwest;whiteSpace=wrap;html=1;" vertex="1" parent="TBiRLypEf1GZ8GdnLdAw-49">
          <mxGeometry y="26" width="420" height="34" as="geometry" />
        </mxCell>
        <mxCell id="TBiRLypEf1GZ8GdnLdAw-51" value="" style="line;strokeWidth=1;fillColor=none;align=left;verticalAlign=middle;spacingTop=-1;spacingLeft=3;spacingRight=3;rotatable=0;labelPosition=right;points=[];portConstraint=eastwest;strokeColor=inherit;" vertex="1" parent="TBiRLypEf1GZ8GdnLdAw-49">
          <mxGeometry y="60" width="420" height="8" as="geometry" />
        </mxCell>
        <mxCell id="TBiRLypEf1GZ8GdnLdAw-52" value="+&amp;nbsp;PsychologistDAO()&lt;br&gt;+ getListPsychologists&lt;span style=&quot;background-color: initial;&quot;&gt;(): Arraylist&amp;lt;&lt;/span&gt;&lt;span style=&quot;background-color: initial; text-align: center;&quot;&gt;PsychologistDAO&lt;/span&gt;&lt;span style=&quot;background-color: initial;&quot;&gt;&amp;gt;&amp;nbsp;&lt;/span&gt;&lt;div style=&quot;background-color:#2f2f2f;padding:0px 0px 0px 2px;&quot;&gt;&lt;div style=&quot;color: rgb(170, 170, 170); font-family: &amp;quot;Courier New&amp;quot;; font-size: 8pt;&quot;&gt;&lt;p style=&quot;background-color:#373737;margin:0;&quot;&gt;&lt;span style=&quot;color:#d9e8f7;&quot;&gt;&lt;/span&gt;&lt;/p&gt;&lt;/div&gt;&lt;/div&gt;&lt;div style=&quot;background-color:#2f2f2f;padding:0px 0px 0px 2px;&quot;&gt;&lt;div style=&quot;color: rgb(170, 170, 170); font-family: &amp;quot;Courier New&amp;quot;; font-size: 8pt;&quot;&gt;&lt;p style=&quot;background-color:#373737;margin:0;&quot;&gt;&lt;span style=&quot;color:#d9e8f7;&quot;&gt;&lt;/span&gt;&lt;/p&gt;&lt;/div&gt;&lt;/div&gt;+&amp;nbsp;setListPsychologists&lt;span style=&quot;background-color: initial;&quot;&gt;(l&lt;/span&gt;istPsychologists&lt;span style=&quot;background-color: initial;&quot;&gt;:Arraylist&amp;lt;&lt;/span&gt;&lt;span style=&quot;background-color: initial; text-align: center;&quot;&gt;PsychologistDAO&lt;/span&gt;&lt;span style=&quot;background-color: initial;&quot;&gt;&amp;gt;): void&lt;/span&gt;&lt;div style=&quot;background-color:#2f2f2f;padding:0px 0px 0px 2px;&quot;&gt;&lt;div style=&quot;color: rgb(170, 170, 170); font-family: &amp;quot;Courier New&amp;quot;; font-size: 8pt;&quot;&gt;&lt;p style=&quot;background-color:#373737;margin:0;&quot;&gt;&lt;span style=&quot;color:#d9e8f7;&quot;&gt;&lt;/span&gt;&lt;/p&gt;&lt;/div&gt;&lt;/div&gt;&lt;div style=&quot;background-color:#2f2f2f;padding:0px 0px 0px 2px;&quot;&gt;&lt;div style=&quot;color: rgb(170, 170, 170); font-family: &amp;quot;Courier New&amp;quot;; font-size: 8pt;&quot;&gt;&lt;p style=&quot;background-color:#373737;margin:0;&quot;&gt;&lt;span style=&quot;color:#d9e8f7;&quot;&gt;&lt;/span&gt;&lt;/p&gt;&lt;/div&gt;&lt;/div&gt;&lt;div style=&quot;background-color:#2f2f2f;padding:0px 0px 0px 2px;&quot;&gt;&lt;div style=&quot;color: rgb(170, 170, 170); font-family: &amp;quot;Courier New&amp;quot;; font-size: 8pt;&quot;&gt;&lt;p style=&quot;background-color:#373737;margin:0;&quot;&gt;&lt;span style=&quot;color:#d9e8f7;&quot;&gt;&lt;/span&gt;&lt;/p&gt;&lt;/div&gt;&lt;/div&gt;" style="text;strokeColor=none;fillColor=none;align=left;verticalAlign=top;spacingLeft=4;spacingRight=4;overflow=hidden;rotatable=0;points=[[0,0.5],[1,0.5]];portConstraint=eastwest;whiteSpace=wrap;html=1;" vertex="1" parent="TBiRLypEf1GZ8GdnLdAw-49">
          <mxGeometry y="68" width="420" height="62" as="geometry" />
        </mxCell>
        <mxCell id="TBiRLypEf1GZ8GdnLdAw-57" value="" style="endArrow=block;dashed=1;endFill=0;endSize=12;html=1;rounded=0;entryX=0.271;entryY=-0.011;entryDx=0;entryDy=0;exitX=1;exitY=0.406;exitDx=0;exitDy=0;exitPerimeter=0;entryPerimeter=0;" edge="1" parent="WIyWlLk6GJQsqaUBKTNV-1" source="TBiRLypEf1GZ8GdnLdAw-34" target="TBiRLypEf1GZ8GdnLdAw-32">
          <mxGeometry width="160" relative="1" as="geometry">
            <mxPoint x="310" y="610" as="sourcePoint" />
            <mxPoint x="470" y="610" as="targetPoint" />
            <Array as="points">
              <mxPoint x="720" y="380" />
            </Array>
          </mxGeometry>
        </mxCell>
        <mxCell id="TBiRLypEf1GZ8GdnLdAw-58" value="" style="endArrow=block;dashed=1;endFill=0;endSize=12;html=1;rounded=0;exitX=1;exitY=0.5;exitDx=0;exitDy=0;entryX=0.142;entryY=0.009;entryDx=0;entryDy=0;entryPerimeter=0;" edge="1" parent="WIyWlLk6GJQsqaUBKTNV-1" source="TBiRLypEf1GZ8GdnLdAw-38" target="TBiRLypEf1GZ8GdnLdAw-32">
          <mxGeometry width="160" relative="1" as="geometry">
            <mxPoint x="570" y="560" as="sourcePoint" />
            <mxPoint x="730" y="560" as="targetPoint" />
            <Array as="points">
              <mxPoint x="697" y="533" />
            </Array>
          </mxGeometry>
        </mxCell>
        <mxCell id="TBiRLypEf1GZ8GdnLdAw-59" value="" style="endArrow=block;dashed=1;endFill=0;endSize=12;html=1;rounded=0;exitX=1;exitY=0.5;exitDx=0;exitDy=0;entryX=-0.005;entryY=0.714;entryDx=0;entryDy=0;entryPerimeter=0;" edge="1" parent="WIyWlLk6GJQsqaUBKTNV-1" source="TBiRLypEf1GZ8GdnLdAw-42" target="TBiRLypEf1GZ8GdnLdAw-32">
          <mxGeometry width="160" relative="1" as="geometry">
            <mxPoint x="580" y="570" as="sourcePoint" />
            <mxPoint x="740" y="570" as="targetPoint" />
            <Array as="points">
              <mxPoint x="640" y="683" />
              <mxPoint x="640" y="640" />
            </Array>
          </mxGeometry>
        </mxCell>
        <mxCell id="TBiRLypEf1GZ8GdnLdAw-60" value="" style="endArrow=block;dashed=1;endFill=0;endSize=12;html=1;rounded=0;exitX=1;exitY=0.5;exitDx=0;exitDy=0;entryX=0.25;entryY=1;entryDx=0;entryDy=0;" edge="1" parent="WIyWlLk6GJQsqaUBKTNV-1" source="TBiRLypEf1GZ8GdnLdAw-50" target="TBiRLypEf1GZ8GdnLdAw-32">
          <mxGeometry width="160" relative="1" as="geometry">
            <mxPoint x="590" y="580" as="sourcePoint" />
            <mxPoint x="750" y="580" as="targetPoint" />
            <Array as="points">
              <mxPoint x="630" y="833" />
              <mxPoint x="720" y="833" />
            </Array>
          </mxGeometry>
        </mxCell>
        <mxCell id="TBiRLypEf1GZ8GdnLdAw-61" value="Use" style="endArrow=open;endSize=12;dashed=1;html=1;rounded=0;exitX=0;exitY=0.5;exitDx=0;exitDy=0;entryX=1;entryY=0.048;entryDx=0;entryDy=0;entryPerimeter=0;" edge="1" parent="WIyWlLk6GJQsqaUBKTNV-1" source="TBiRLypEf1GZ8GdnLdAw-34" target="TBiRLypEf1GZ8GdnLdAw-13">
          <mxGeometry width="160" relative="1" as="geometry">
            <mxPoint x="30" y="640" as="sourcePoint" />
            <mxPoint x="190" y="640" as="targetPoint" />
          </mxGeometry>
        </mxCell>
        <mxCell id="TBiRLypEf1GZ8GdnLdAw-65" value="Use" style="endArrow=open;endSize=12;dashed=1;html=1;rounded=0;exitX=1;exitY=0.5;exitDx=0;exitDy=0;entryX=0;entryY=0.5;entryDx=0;entryDy=0;" edge="1" parent="WIyWlLk6GJQsqaUBKTNV-1" source="TBiRLypEf1GZ8GdnLdAw-20" target="TBiRLypEf1GZ8GdnLdAw-38">
          <mxGeometry x="0.1677" width="160" relative="1" as="geometry">
            <mxPoint x="-90" y="320" as="sourcePoint" />
            <mxPoint x="70" y="320" as="targetPoint" />
            <Array as="points">
              <mxPoint x="110" y="470" />
              <mxPoint x="110" y="530" />
            </Array>
            <mxPoint as="offset" />
          </mxGeometry>
        </mxCell>
        <mxCell id="TBiRLypEf1GZ8GdnLdAw-66" value="Use" style="endArrow=open;endSize=12;dashed=1;html=1;rounded=0;entryX=0.002;entryY=0.791;entryDx=0;entryDy=0;exitX=1;exitY=0.5;exitDx=0;exitDy=0;entryPerimeter=0;" edge="1" parent="WIyWlLk6GJQsqaUBKTNV-1" source="TBiRLypEf1GZ8GdnLdAw-24" target="TBiRLypEf1GZ8GdnLdAw-50">
          <mxGeometry width="160" relative="1" as="geometry">
            <mxPoint x="-80" y="330" as="sourcePoint" />
            <mxPoint x="80" y="330" as="targetPoint" />
          </mxGeometry>
        </mxCell>
        <mxCell id="TBiRLypEf1GZ8GdnLdAw-67" value="Use" style="endArrow=open;endSize=12;dashed=1;html=1;rounded=0;exitX=1;exitY=0.5;exitDx=0;exitDy=0;entryX=0;entryY=0.5;entryDx=0;entryDy=0;" edge="1" parent="WIyWlLk6GJQsqaUBKTNV-1" source="TBiRLypEf1GZ8GdnLdAw-4" target="TBiRLypEf1GZ8GdnLdAw-42">
          <mxGeometry width="160" relative="1" as="geometry">
            <mxPoint x="-70" y="340" as="sourcePoint" />
            <mxPoint x="90" y="340" as="targetPoint" />
            <Array as="points">
              <mxPoint x="130" y="229" />
              <mxPoint x="130" y="683" />
            </Array>
          </mxGeometry>
        </mxCell>
        <mxCell id="TBiRLypEf1GZ8GdnLdAw-68" value="co.edu.unbosque.controller" style="shape=folder;fontStyle=1;spacingTop=10;tabWidth=170;tabHeight=20;tabPosition=left;html=1;whiteSpace=wrap;align=left;labelPosition=center;verticalLabelPosition=top;verticalAlign=bottom;spacingBottom=-18;" vertex="1" parent="WIyWlLk6GJQsqaUBKTNV-1">
          <mxGeometry x="1100" y="430" width="480" height="380" as="geometry" />
        </mxCell>
        <mxCell id="TBiRLypEf1GZ8GdnLdAw-69" value="UserControllerServlet" style="swimlane;fontStyle=1;align=center;verticalAlign=top;childLayout=stackLayout;horizontal=1;startSize=26;horizontalStack=0;resizeParent=1;resizeParentMax=0;resizeLast=0;collapsible=1;marginBottom=0;whiteSpace=wrap;html=1;" vertex="1" parent="WIyWlLk6GJQsqaUBKTNV-1">
          <mxGeometry x="1130" y="553" width="340" height="150" as="geometry" />
        </mxCell>
        <mxCell id="TBiRLypEf1GZ8GdnLdAw-70" value="- serialVersionUID: long&lt;br&gt;- gdao: GeneralServiceDAO&lt;br&gt;- pdao: ParticipantDAO&lt;br&gt;- sdao: PsychologistDAO" style="text;strokeColor=none;fillColor=none;align=left;verticalAlign=top;spacingLeft=4;spacingRight=4;overflow=hidden;rotatable=0;points=[[0,0.5],[1,0.5]];portConstraint=eastwest;whiteSpace=wrap;html=1;" vertex="1" parent="TBiRLypEf1GZ8GdnLdAw-69">
          <mxGeometry y="26" width="340" height="74" as="geometry" />
        </mxCell>
        <mxCell id="TBiRLypEf1GZ8GdnLdAw-71" value="" style="line;strokeWidth=1;fillColor=none;align=left;verticalAlign=middle;spacingTop=-1;spacingLeft=3;spacingRight=3;rotatable=0;labelPosition=right;points=[];portConstraint=eastwest;strokeColor=inherit;" vertex="1" parent="TBiRLypEf1GZ8GdnLdAw-69">
          <mxGeometry y="100" width="340" height="8" as="geometry" />
        </mxCell>
        <mxCell id="TBiRLypEf1GZ8GdnLdAw-72" value="+ UserControllerServlet()&lt;br&gt;" style="text;strokeColor=none;fillColor=none;align=left;verticalAlign=top;spacingLeft=4;spacingRight=4;overflow=hidden;rotatable=0;points=[[0,0.5],[1,0.5]];portConstraint=eastwest;whiteSpace=wrap;html=1;" vertex="1" parent="TBiRLypEf1GZ8GdnLdAw-69">
          <mxGeometry y="108" width="340" height="42" as="geometry" />
        </mxCell>
        <mxCell id="TBiRLypEf1GZ8GdnLdAw-73" value="HttpServlet" style="swimlane;fontStyle=1;align=center;verticalAlign=top;childLayout=stackLayout;horizontal=1;startSize=26;horizontalStack=0;resizeParent=1;resizeParentMax=0;resizeLast=0;collapsible=1;marginBottom=0;whiteSpace=wrap;html=1;" vertex="1" parent="WIyWlLk6GJQsqaUBKTNV-1">
          <mxGeometry x="1470" y="388" width="160" height="34" as="geometry" />
        </mxCell>
        <mxCell id="TBiRLypEf1GZ8GdnLdAw-75" value="" style="line;strokeWidth=1;fillColor=none;align=left;verticalAlign=middle;spacingTop=-1;spacingLeft=3;spacingRight=3;rotatable=0;labelPosition=right;points=[];portConstraint=eastwest;strokeColor=inherit;" vertex="1" parent="TBiRLypEf1GZ8GdnLdAw-73">
          <mxGeometry y="26" width="160" height="8" as="geometry" />
        </mxCell>
        <mxCell id="TBiRLypEf1GZ8GdnLdAw-77" value="Extends" style="endArrow=block;endSize=16;endFill=0;html=1;rounded=0;exitX=1;exitY=0.5;exitDx=0;exitDy=0;entryX=0.5;entryY=1;entryDx=0;entryDy=0;" edge="1" parent="WIyWlLk6GJQsqaUBKTNV-1" source="TBiRLypEf1GZ8GdnLdAw-70" target="TBiRLypEf1GZ8GdnLdAw-73">
          <mxGeometry width="160" relative="1" as="geometry">
            <mxPoint x="1320" y="520" as="sourcePoint" />
            <mxPoint x="1480" y="520" as="targetPoint" />
            <Array as="points">
              <mxPoint x="1550" y="616" />
            </Array>
          </mxGeometry>
        </mxCell>
        <mxCell id="TBiRLypEf1GZ8GdnLdAw-78" value="Use" style="endArrow=open;endSize=12;dashed=1;html=1;rounded=0;exitX=0.25;exitY=0;exitDx=0;exitDy=0;entryX=1;entryY=0;entryDx=0;entryDy=0;" edge="1" parent="WIyWlLk6GJQsqaUBKTNV-1" source="TBiRLypEf1GZ8GdnLdAw-69" target="TBiRLypEf1GZ8GdnLdAw-33">
          <mxGeometry width="160" relative="1" as="geometry">
            <mxPoint x="940" y="790" as="sourcePoint" />
            <mxPoint x="1100" y="790" as="targetPoint" />
            <Array as="points">
              <mxPoint x="1215" y="340" />
            </Array>
          </mxGeometry>
        </mxCell>
        <mxCell id="TBiRLypEf1GZ8GdnLdAw-79" value="Use" style="endArrow=open;endSize=12;dashed=1;html=1;rounded=0;entryX=1.005;entryY=0.142;entryDx=0;entryDy=0;entryPerimeter=0;exitX=0;exitY=0.284;exitDx=0;exitDy=0;exitPerimeter=0;" edge="1" parent="WIyWlLk6GJQsqaUBKTNV-1" source="TBiRLypEf1GZ8GdnLdAw-70" target="TBiRLypEf1GZ8GdnLdAw-37">
          <mxGeometry width="160" relative="1" as="geometry">
            <mxPoint x="740" y="600" as="sourcePoint" />
            <mxPoint x="900" y="600" as="targetPoint" />
            <Array as="points">
              <mxPoint x="1060" y="600" />
              <mxPoint x="1060" y="510" />
            </Array>
          </mxGeometry>
        </mxCell>
        <mxCell id="TBiRLypEf1GZ8GdnLdAw-80" value="Use" style="endArrow=open;endSize=12;dashed=1;html=1;rounded=0;entryX=1;entryY=0.5;entryDx=0;entryDy=0;" edge="1" parent="WIyWlLk6GJQsqaUBKTNV-1" target="TBiRLypEf1GZ8GdnLdAw-44">
          <mxGeometry width="160" relative="1" as="geometry">
            <mxPoint x="1130" y="640" as="sourcePoint" />
            <mxPoint x="910" y="610" as="targetPoint" />
            <Array as="points">
              <mxPoint x="1010" y="640" />
              <mxPoint x="1010" y="740" />
            </Array>
          </mxGeometry>
        </mxCell>
        <mxCell id="TBiRLypEf1GZ8GdnLdAw-81" value="Use" style="endArrow=open;endSize=12;dashed=1;html=1;rounded=0;exitX=0;exitY=0.5;exitDx=0;exitDy=0;entryX=1;entryY=0.5;entryDx=0;entryDy=0;" edge="1" parent="WIyWlLk6GJQsqaUBKTNV-1" source="TBiRLypEf1GZ8GdnLdAw-72" target="TBiRLypEf1GZ8GdnLdAw-52">
          <mxGeometry width="160" relative="1" as="geometry">
            <mxPoint x="760" y="620" as="sourcePoint" />
            <mxPoint x="920" y="620" as="targetPoint" />
            <Array as="points">
              <mxPoint x="1040" y="680" />
              <mxPoint x="1040" y="889" />
            </Array>
          </mxGeometry>
        </mxCell>
      </root>
    </mxGraphModel>
  </diagram>
</mxfile>
